<svg xmlns="http://www.w3.org/2000/svg" viewBox="0 0 1800 390" role="img" aria-labelledby="title desc"><title id="title">Sanctum LifeMatch</title><desc id="desc">Sanctum LifeMatch approved navy and champagne-gold identity: two human forms making a heart within a gold orbit.</desc><defs><linearGradient id="gold" x1="0" y1="0" x2="1" y2="1"><stop offset="0" stop-color="#f6dfaa"/><stop offset=".28" stop-color="#d3a45e"/><stop offset=".52" stop-color="#f2cf82"/><stop offset=".76" stop-color="#b57a35"/><stop offset="1" stop-color="#efd291"/></linearGradient><linearGradient id="navy" x1="0" y1="0" x2="1" y2="1"><stop offset="0" stop-color="#0f294b"/><stop offset="1" stop-color="#06172d"/></linearGradient></defs><g transform="translate(18 18)"><circle cx="165" cy="165" r="142" fill="none" stroke="url(#gold)" stroke-width="10"/><circle cx="30" cy="165" r="15" fill="url(#gold)"/><circle cx="300" cy="165" r="15" fill="url(#gold)"/><circle cx="118" cy="94" r="20" fill="url(#navy)"/><circle cx="212" cy="94" r="20" fill="url(#gold)"/><path d="M78 130 C88 112 112 110 132 124 C149 136 159 151 165 164 C171 151 181 136 198 124 C218 110 242 112 252 130 C264 151 255 174 234 194 L165 260 L96 194 C75 174 66 151 78 130 Z" fill="none" stroke="url(#gold)" stroke-width="15" stroke-linejoin="round"/><path d="M93 134 C119 148 139 172 165 218 C191 172 211 148 237 134" fill="none" stroke="url(#navy)" stroke-width="14" stroke-linecap="round"/><path d="M30 164 C61 97 112 54 165 38 C218 54 269 97 300 164" fill="none" stroke="url(#gold)" stroke-width="7" stroke-linecap="round" opacity=".95"/><path d="M30 166 C61 233 112 276 165 292 C218 276 269 233 300 166" fill="none" stroke="url(#gold)" stroke-width="7" stroke-linecap="round" opacity=".95"/></g><g transform="translate(365 66)"><text x="0" y="118" font-family="Georgia, 'Times New Roman', serif" font-size="122" font-weight="600" letter-spacing="5" fill="#071b36">SANCTUM</text><rect x="808" y="15" width="5" height="128" rx="2.5" fill="url(#gold)"/><text x="842" y="118" font-family="Georgia, 'Times New Roman', serif" font-size="110" font-weight="600" fill="url(#gold)">LifeMatch</text><text x="190" y="204" font-family="Arial, Helvetica, sans-serif" font-size="28" letter-spacing="13" fill="#071b36">REAL CONNECTIONS. REAL LIVES.</text></g></svg>