<svg xmlns="http://www.w3.org/2000/svg" viewBox="0 0 120 120" role="img" aria-labelledby="title"><title id="title">Sanctum LifeMatch</title><defs><linearGradient id="g" x1="0" y1="0" x2="1" y2="1"><stop offset="0" stop-color="#e7c786"/><stop offset="1" stop-color="#c99a56"/></linearGradient></defs><circle cx="60" cy="60" r="52" fill="#0d1d33" stroke="url(#g)" stroke-width="4"/><path d="M31 63c0-15 10-25 23-25 8 0 13 4 16 10 3-6 8-10 16-10 13 0 23 10 23 25 0 19-20 34-39 48C51 97 31 82 31 63Z" fill="none" stroke="url(#g)" stroke-width="6" stroke-linecap="round" stroke-linejoin="round"/><path d="M25 84c13-24 26-35 39-35 14 0 27 11 41 35" fill="none" stroke="#fff" stroke-opacity=".82" stroke-width="3.5" stroke-linecap="round"/><circle cx="60" cy="58" r="3.5" fill="#fff"/></svg>